G04 EasyPC Gerber Version 20.0.2 Build 4112 *
G04 #@! TF.Part,Single*
G04 #@! TF.FileFunction,Copper,L2,Bot *
%FSLAX35Y35*%
%MOIN*%
G04 #@! TA.AperFunction,ComponentPad*
%ADD116R,0.04449X0.04449*%
%ADD115R,0.06496X0.06496*%
G04 #@! TD.AperFunction*
%ADD119C,0.02700*%
G04 #@! TA.AperFunction,ComponentPad*
%ADD117C,0.04449*%
%ADD118C,0.05315*%
G04 #@! TD.AperFunction*
%ADD13C,0.06000*%
G04 #@! TA.AperFunction,WasherPad*
%ADD114C,0.24409*%
X0Y0D02*
D02*
D13*
X103817Y81155D03*
Y111155D03*
X104517Y215154D03*
Y225154D03*
X114517Y215154D03*
Y225154D03*
X114617Y73555D03*
Y113555D03*
X124517Y215154D03*
Y225154D03*
X125417Y73555D03*
Y113555D03*
X134517Y215154D03*
Y225154D03*
X136217Y81155D03*
Y111155D03*
X144517Y215154D03*
Y225154D03*
X154517Y215154D03*
Y225154D03*
X164517Y215154D03*
Y225154D03*
X172617Y80755D03*
Y110755D03*
X174517Y215154D03*
Y225154D03*
X183817Y73555D03*
Y113555D03*
X184517Y215154D03*
Y225154D03*
X194517Y215154D03*
Y225154D03*
X194617Y73555D03*
Y113555D03*
X204517Y215154D03*
Y225154D03*
X205817Y80755D03*
Y110755D03*
X214517Y215154D03*
Y225154D03*
X224517Y215154D03*
Y225154D03*
X234517Y215154D03*
Y225154D03*
X241817Y81155D03*
Y111155D03*
X244517Y215154D03*
Y225154D03*
X252617Y73555D03*
Y113555D03*
X254517Y215154D03*
Y225154D03*
X263417Y73555D03*
Y113555D03*
X264517Y215154D03*
Y225154D03*
X274217Y81155D03*
Y111155D03*
X274517Y215154D03*
Y225154D03*
X284517Y215154D03*
Y225154D03*
X294517Y215154D03*
D02*
D114*
X86346Y27319D03*
Y220232D03*
X314693Y27319D03*
Y220232D03*
D02*
D115*
X294517Y225154D03*
D02*
D116*
X226817Y153755D03*
X318017Y154155D03*
D02*
D117*
X156817Y153755D03*
Y183755D03*
X166817Y153755D03*
Y183755D03*
X176817Y153755D03*
Y183755D03*
X186817Y153755D03*
Y183755D03*
X196817Y153755D03*
Y183755D03*
X206817Y153755D03*
Y183755D03*
X216817Y153755D03*
Y183755D03*
X226817D03*
X248017Y154155D03*
Y184155D03*
X258017Y154155D03*
Y184155D03*
X268017Y154155D03*
Y184155D03*
X278017Y154155D03*
Y184155D03*
X288017Y154155D03*
Y184155D03*
X298017Y154155D03*
Y184155D03*
X308017Y154155D03*
Y184155D03*
X318017D03*
D02*
D118*
X121622Y44248D03*
X125638Y54248D03*
X129614Y44248D03*
X133630Y54248D03*
X137606Y44248D03*
X141622Y54248D03*
X190520Y44248D03*
X194535Y54248D03*
X198512Y44248D03*
X202528Y54248D03*
X206504Y44248D03*
X210520Y54248D03*
X259417Y44248D03*
X263433Y54248D03*
X267409Y44248D03*
X271425Y54248D03*
X275402Y44248D03*
X279417Y54248D03*
D02*
D119*
X121622Y44248D02*
X121417D01*
X114617Y51048*
Y73555*
X125638Y54248D02*
Y73555D01*
X125417*
X190520Y44248D02*
X190217D01*
X183817Y50648*
Y73555*
X194535Y54248D02*
X194617D01*
Y73555*
X0Y0D02*
M02*
